<svg width="30" height="30" viewBox="0 0 30 30" fill="none" xmlns="http://www.w3.org/2000/svg">
<mask id="mask0_4_168" style="mask-type:alpha" maskUnits="userSpaceOnUse" x="0" y="0" width="30" height="30">
<rect width="30" height="30" fill="#D9D9D9"/>
</mask>
<g mask="url(#mask0_4_168)">
<path d="M7.5 27.5C6.8125 27.5 6.22396 27.2552 5.73438 26.7656C5.24479 26.276 5 25.6875 5 25V12.5C5 11.8125 5.24479 11.224 5.73438 10.7344C6.22396 10.2448 6.8125 10 7.5 10H8.75V7.5C8.75 5.77083 9.35938 4.29688 10.5781 3.07812C11.7969 1.85937 13.2708 1.25 15 1.25C16.7292 1.25 18.2031 1.85937 19.4219 3.07812C20.6406 4.29688 21.25 5.77083 21.25 7.5V10H22.5C23.1875 10 23.776 10.2448 24.2656 10.7344C24.7552 11.224 25 11.8125 25 12.5V25C25 25.6875 24.7552 26.276 24.2656 26.7656C23.776 27.2552 23.1875 27.5 22.5 27.5H7.5ZM7.5 25H22.5V12.5H7.5V25ZM15 21.25C15.6875 21.25 16.276 21.0052 16.7656 20.5156C17.2552 20.026 17.5 19.4375 17.5 18.75C17.5 18.0625 17.2552 17.474 16.7656 16.9844C16.276 16.4948 15.6875 16.25 15 16.25C14.3125 16.25 13.724 16.4948 13.2344 16.9844C12.7448 17.474 12.5 18.0625 12.5 18.75C12.5 19.4375 12.7448 20.026 13.2344 20.5156C13.724 21.0052 14.3125 21.25 15 21.25ZM11.25 10H18.75V7.5C18.75 6.45833 18.3854 5.57292 17.6562 4.84375C16.9271 4.11458 16.0417 3.75 15 3.75C13.9583 3.75 13.0729 4.11458 12.3438 4.84375C11.6146 5.57292 11.25 6.45833 11.25 7.5V10Z" fill="#16131C"/>
</g>
</svg>
