<svg width="30" height="30" viewBox="0 0 30 30" fill="none" xmlns="http://www.w3.org/2000/svg">
<mask id="mask0_4_182" style="mask-type:alpha" maskUnits="userSpaceOnUse" x="0" y="0" width="30" height="30">
<rect width="30" height="30" fill="#D9D9D9"/>
</mask>
<g mask="url(#mask0_4_182)">
<path d="M7.5 25H22.5V12.5H7.5V25ZM15 21.25C15.6875 21.25 16.276 21.0052 16.7656 20.5156C17.2552 20.026 17.5 19.4375 17.5 18.75C17.5 18.0625 17.2552 17.474 16.7656 16.9844C16.276 16.4948 15.6875 16.25 15 16.25C14.3125 16.25 13.724 16.4948 13.2344 16.9844C12.7448 17.474 12.5 18.0625 12.5 18.75C12.5 19.4375 12.7448 20.026 13.2344 20.5156C13.724 21.0052 14.3125 21.25 15 21.25ZM7.5 27.5C6.8125 27.5 6.22396 27.2552 5.73438 26.7656C5.24479 26.276 5 25.6875 5 25V12.5C5 11.8125 5.24479 11.224 5.73438 10.7344C6.22396 10.2448 6.8125 10 7.5 10H16.25V7.5C16.25 5.77083 16.8594 4.29688 18.0781 3.07812C19.2969 1.85937 20.7708 1.25 22.5 1.25C24.2292 1.25 25.7031 1.85937 26.9219 3.07812C28.1406 4.29688 28.75 5.77083 28.75 7.5H26.25C26.25 6.45833 25.8854 5.57292 25.1562 4.84375C24.4271 4.11458 23.5417 3.75 22.5 3.75C21.4583 3.75 20.5729 4.11458 19.8438 4.84375C19.1146 5.57292 18.75 6.45833 18.75 7.5V10H22.5C23.1875 10 23.776 10.2448 24.2656 10.7344C24.7552 11.224 25 11.8125 25 12.5V25C25 25.6875 24.7552 26.276 24.2656 26.7656C23.776 27.2552 23.1875 27.5 22.5 27.5H7.5Z" fill="white"/>
</g>
</svg>
