<svg width="233" height="101" viewBox="0 0 233 101" fill="none" xmlns="http://www.w3.org/2000/svg">
<path d="M112.536 76.992V83.04C111 83.36 109.496 83.6 108.024 83.76C106.552 83.92 104.808 84 102.792 84C100.2 84 98.008 83.776 96.216 83.328C94.456 82.88 93.032 82.096 91.944 80.976C90.888 79.824 90.12 78.208 89.64 76.128C89.16 74.048 88.92 71.376 88.92 68.112C88.92 64.976 89.16 62.4 89.64 60.384C90.12 58.368 90.888 56.816 91.944 55.728C93.032 54.608 94.456 53.84 96.216 53.424C98.008 52.976 100.2 52.752 102.792 52.752C104.808 52.752 106.552 52.832 108.024 52.992C109.496 53.12 111 53.36 112.536 53.712V59.952L112.392 60.048C111.048 59.728 109.752 59.504 108.504 59.376C107.256 59.216 105.72 59.136 103.896 59.136C102.424 59.136 101.208 59.248 100.248 59.472C99.32 59.664 98.584 60.064 98.04 60.672C97.496 61.28 97.112 62.176 96.888 63.36C96.696 64.544 96.6 66.128 96.6 68.112C96.6 70.192 96.696 71.872 96.888 73.152C97.112 74.4 97.496 75.344 98.04 75.984C98.584 76.624 99.32 77.056 100.248 77.28C101.208 77.504 102.424 77.616 103.896 77.616C105.688 77.616 107.208 77.568 108.456 77.472C109.736 77.344 111.016 77.12 112.296 76.8L112.536 76.992ZM124.279 83.568H116.599V53.184H124.279V64.8H135.799V53.184H143.479V83.568H135.799V71.04H124.279V83.568ZM177.064 83.424V83.568H168.904C168.68 82.8 168.408 81.92 168.088 80.928C167.8 79.936 167.48 78.88 167.128 77.76H156.76C156.12 80 155.528 81.936 154.984 83.568H146.824V83.472L156.664 53.184H167.224L177.064 83.424ZM161.848 58.656C161.528 60.288 161.064 62.272 160.456 64.608C159.848 66.944 159.208 69.328 158.536 71.76H165.4C164.696 69.328 164.04 66.944 163.432 64.608C162.824 62.272 162.36 60.288 162.04 58.656H161.848ZM186.683 83.568V59.664H178.043V53.184H203.003V59.664H194.363V83.568H186.683ZM205.596 75.744C207.004 76.224 208.54 76.608 210.204 76.896C211.9 77.152 213.58 77.28 215.244 77.28C217.516 77.28 219.196 77.184 220.284 76.992C221.404 76.768 222.14 76.432 222.492 75.984C222.844 75.536 223.02 74.96 223.02 74.256C223.02 73.648 222.892 73.168 222.636 72.816C222.38 72.464 221.884 72.192 221.148 72C220.412 71.776 219.324 71.6 217.884 71.472L214.716 71.184C212.348 70.96 210.476 70.464 209.1 69.696C207.756 68.928 206.796 67.904 206.22 66.624C205.676 65.312 205.404 63.744 205.404 61.92C205.404 59.744 205.836 57.984 206.7 56.64C207.596 55.296 209.036 54.32 211.02 53.712C213.004 53.072 215.644 52.752 218.94 52.752C223.228 52.752 226.764 53.312 229.548 54.432L229.404 60.96L229.26 61.152C226.092 60.032 222.78 59.472 219.324 59.472C217.66 59.472 216.38 59.568 215.484 59.76C214.588 59.92 213.964 60.192 213.612 60.576C213.26 60.96 213.084 61.504 213.084 62.208C213.084 62.912 213.196 63.44 213.42 63.792C213.676 64.144 214.172 64.416 214.908 64.608C215.644 64.768 216.716 64.928 218.124 65.088L221.148 65.424C223.708 65.712 225.676 66.224 227.052 66.96C228.428 67.696 229.372 68.688 229.884 69.936C230.428 71.152 230.7 72.64 230.7 74.4C230.7 76.544 230.236 78.336 229.308 79.776C228.412 81.184 226.94 82.24 224.892 82.944C222.844 83.648 220.108 84 216.684 84C214.444 84 212.428 83.888 210.636 83.664C208.844 83.408 207.1 83.072 205.404 82.656V75.888L205.596 75.744Z" fill="white"/>
<g filter="url(#filter0_d_69_258)">
<path d="M40.024 40.328L40.024 44.36C39 44.5733 37.9973 44.7333 37.016 44.84C36.0347 44.9467 34.872 45 33.528 45C31.8 45 30.3387 44.8507 29.144 44.552C27.9707 44.2533 27.0213 43.7307 26.296 42.984C25.592 42.216 25.08 41.1387 24.76 39.752C24.44 38.3653 24.28 36.584 24.28 34.408C24.28 32.3173 24.44 30.6 24.76 29.256C25.08 27.912 25.592 26.8773 26.296 26.152C27.0213 25.4053 27.9707 24.8933 29.144 24.616C30.3387 24.3173 31.8 24.168 33.528 24.168C34.872 24.168 36.0347 24.2213 37.016 24.328C37.9973 24.4133 39 24.5733 40.024 24.808L40.024 28.968L39.928 29.032C39.032 28.8187 38.168 28.6693 37.336 28.584C36.504 28.4773 35.48 28.424 34.264 28.424C33.2827 28.424 32.472 28.4987 31.832 28.648C31.2133 28.776 30.7227 29.0427 30.36 29.448C29.9973 29.8533 29.7413 30.4507 29.592 31.24C29.464 32.0293 29.4 33.0853 29.4 34.408C29.4 35.7947 29.464 36.9147 29.592 37.768C29.7413 38.6 29.9973 39.2293 30.36 39.656C30.7227 40.0827 31.2133 40.3707 31.832 40.52C32.472 40.6693 33.2827 40.744 34.264 40.744C35.4587 40.744 36.472 40.712 37.304 40.648C38.1573 40.5627 39.0107 40.4133 39.864 40.2L40.024 40.328ZM47.8525 44.712L42.7325 44.712L42.7325 24.456L47.8525 24.456L47.8525 32.2L55.5325 32.2L55.5325 24.456L60.6525 24.456L60.6525 44.712L55.5325 44.712L55.5325 36.36L47.8525 36.36L47.8525 44.712ZM83.0425 44.616L83.0425 44.712L77.6025 44.712C77.4532 44.2 77.2718 43.6133 77.0585 42.952C76.8665 42.2907 76.6532 41.5867 76.4185 40.84L69.5065 40.84C69.0798 42.3333 68.6852 43.624 68.3225 44.712L62.8825 44.712L62.8825 44.648L69.4425 24.456L76.4825 24.456L83.0425 44.616ZM72.8985 28.104C72.6852 29.192 72.3758 30.5147 71.9705 32.072C71.5652 33.6293 71.1385 35.2187 70.6905 36.84L75.2665 36.84C74.7972 35.2187 74.3598 33.6293 73.9545 32.072C73.5492 30.5147 73.2398 29.192 73.0265 28.104L72.8985 28.104Z" fill="white"/>
<path d="M94.543 43.688C94.1803 42.536 93.807 41.3093 93.423 40.008C93.0603 38.7067 92.6977 37.416 92.335 36.136C91.9723 34.856 91.6417 33.6613 91.343 32.552C91.0443 31.4427 90.7883 30.4827 90.575 29.672C90.3617 28.8613 90.2123 28.2853 90.127 27.944L89.999 27.976C90.063 28.36 90.1163 28.872 90.159 29.512C90.2017 30.1307 90.2337 30.792 90.255 31.496C90.2763 32.1787 90.287 32.808 90.287 33.384L90.287 44.712L85.391 44.712L85.391 24.456L93.967 24.456C94.2657 25.5867 94.575 26.7813 94.895 28.04C95.2363 29.2773 95.567 30.5147 95.887 31.752C96.2283 32.968 96.527 34.1307 96.783 35.24C97.039 36.328 97.2203 37.2773 97.327 38.088L97.391 38.088C97.4977 37.2773 97.6683 36.328 97.903 35.24C98.159 34.152 98.447 32.9893 98.767 31.752C99.087 30.5147 99.4177 29.2773 99.759 28.04C100.1 26.7813 100.41 25.5867 100.687 24.456L109.135 24.456L109.135 44.712L104.303 44.712L104.303 33.384C104.303 32.808 104.314 32.1787 104.335 31.496C104.356 30.792 104.388 30.1307 104.431 29.512C104.495 28.872 104.548 28.36 104.591 27.976L104.463 27.944C104.378 28.2853 104.228 28.8613 104.015 29.672C103.802 30.4827 103.535 31.4533 103.215 32.584C102.916 33.6933 102.586 34.888 102.223 36.168C101.86 37.448 101.487 38.7387 101.103 40.04C100.74 41.32 100.388 42.536 100.047 43.688L94.543 43.688ZM112.436 34.568C112.436 31.9867 112.724 29.9387 113.3 28.424C113.898 26.9093 114.911 25.8213 116.34 25.16C117.791 24.4987 119.807 24.168 122.388 24.168C124.33 24.168 125.94 24.3493 127.22 24.712C128.5 25.0747 129.514 25.6613 130.26 26.472C131.007 27.2827 131.53 28.36 131.828 29.704C132.148 31.0267 132.308 32.648 132.308 34.568C132.308 36.5093 132.148 38.152 131.828 39.496C131.53 40.8187 131.007 41.8853 130.26 42.696C129.514 43.5067 128.5 44.0933 127.22 44.456C125.94 44.8187 124.33 45 122.388 45C120.447 45 118.836 44.8187 117.556 44.456C116.276 44.0933 115.263 43.5067 114.516 42.696C113.77 41.8853 113.236 40.8187 112.916 39.496C112.596 38.152 112.436 36.5093 112.436 34.568ZM122.388 40.52C123.754 40.52 124.778 40.3493 125.46 40.008C126.143 39.6667 126.602 39.0693 126.836 38.216C127.071 37.3413 127.188 36.1253 127.188 34.568C127.188 33.032 127.071 31.8373 126.836 30.984C126.602 30.1307 126.143 29.5333 125.46 29.192C124.778 28.8293 123.754 28.648 122.388 28.648C121.044 28.648 120.02 28.8293 119.316 29.192C118.634 29.5333 118.164 30.1307 117.908 30.984C117.674 31.8373 117.556 33.032 117.556 34.568C117.556 36.1253 117.674 37.3413 117.908 38.216C118.164 39.0693 118.634 39.6667 119.316 40.008C120.02 40.3493 121.044 40.52 122.388 40.52ZM150.234 40.36L150.234 44.712L135.514 44.712L135.514 24.456L140.634 24.456L140.634 40.36L150.234 40.36Z" fill="#FFD600"/>
</g>
<defs>
<filter id="filter0_d_69_258" x="0.279999" y="0.167999" width="173.954" height="68.832" filterUnits="userSpaceOnUse" color-interpolation-filters="sRGB">
<feFlood flood-opacity="0" result="BackgroundImageFix"/>
<feColorMatrix in="SourceAlpha" type="matrix" values="0 0 0 0 0 0 0 0 0 0 0 0 0 0 0 0 0 0 127 0" result="hardAlpha"/>
<feMorphology radius="8" operator="dilate" in="SourceAlpha" result="effect1_dropShadow_69_258"/>
<feOffset/>
<feGaussianBlur stdDeviation="8"/>
<feComposite in2="hardAlpha" operator="out"/>
<feColorMatrix type="matrix" values="0 0 0 0 0 0 0 0 0 0 0 0 0 0 0 0 0 0 0.5 0"/>
<feBlend mode="normal" in2="BackgroundImageFix" result="effect1_dropShadow_69_258"/>
<feBlend mode="normal" in="SourceGraphic" in2="effect1_dropShadow_69_258" result="shape"/>
</filter>
</defs>
</svg>
